<ttFont>
<head>
    <!-- Most of this table will be recalculated by the compiler -->
    <tableVersion value="1.0"/>
    <fontRevision value="1.0"/>
    <checkSumAdjustment value="0x67a71191"/>
    <magicNumber value="0x5f0f3cf5"/>
    <flags value="00000000 00000011"/>
    <unitsPerEm value="1000"/>
    <created value="Sat Dec 31 02:17:35 2022"/>
    <modified value="Sat Dec 31 02:17:35 2022"/>
    <xMin value="-7"/>
    <yMin value="-164"/>
    <xMax value="1009"/>
    <yMax value="669"/>
    <macStyle value="00000000 00000000"/>
    <lowestRecPPEM value="3"/>
    <fontDirectionHint value="2"/>
    <indexToLocFormat value="1"/>
    <glyphDataFormat value="0"/>
  </head>
        <CharString name=".notdef">
          527 50.0 700.0 rmoveto
          0.0 -700.0 rlineto
          427.0 0.0 rlineto
          0.0 700.0 rlineto
          -399.0 -20.0 rmoveto
          371.0 0.0 rlineto
          -186.0 -309.0 rlineto
          -12.0 -21.0 rmoveto
          -180.0 -301.0 rlineto
          0.0 601.0 rlineto
          193.0 -321.0 rmoveto
          185.0 -308.0 rlineto
          -370.0 0.0 rlineto
          197.0 329.0 rmoveto
          181.0 302.0 rlineto
          0.0 -605.0 rlineto
          endchar
        </CharString>
        <CharString name=".null">
          0 endchar
        </CharString>
        <CharString name="A">
          501 417.37 0.02 rmoveto
          82.91 0.0 rlineto
          -238.25 643.11 rlineto
          -82.9 0.0 rlineto
          39.32 -106.15 rlineto
          -220.45 -536.96 rlineto
          16.76 0.0 rlineto
          67.42 164.18 rlineto
          274.37 0.0 rlineto
          -267.99 15.56 rmoveto
          137.85 335.73 rlineto
          124.37 -335.73 rlineto
          endchar
        </CharString>
        <CharString name="B">
          566 325.73686 359.9064 rmoveto
          81.53214 24.19829 56.18655 50.95177 0.0 58.95952 rrcurveto
          0.0 82.35275 -109.60793 66.76115 -135.2102 0.0 rrcurveto
          -90.85445 0.0 rlineto
          0.0 0.00778 rlineto
          -77.783 0.0 rlineto
          0.0 -643.1371 rlineto
          77.783 0.0 rlineto
          0.0 0.01945 rlineto
          179.49985 0.0 rlineto
          0.05833 0.0 0.04668 -0.01945 0.06223 0.0 rrcurveto
          135.2102 0.0 109.60793 80.6921 0.0 99.53891 rrcurveto
          0.00389 95.00417 -99.87338 77.77911 -126.66183 6.89157 rrcurveto
          -107.09554 267.66687 rmoveto
          112.85925 0.0 46.39755 -56.30711 0.0 -77.25018 rrcurveto
          0.0 -77.23853 -46.3859 -56.30322 -112.83592 -0.01556 rrcurveto
          -90.88943 0.0 rlineto
          0.0 267.11461 rlineto
          0.00389 0.0 90.84666 0.0 0.00389 0.0 rrcurveto
          88.81264 -611.99667 rmoveto
          -179.66707 0.0 rlineto
          0.0 329.32935 rlineto
          0.0 0.0 90.85056 0.0 0.00389 0.0 rrcurveto
          0.00778 0.0 0.00778 0.0 0.00777 0.0 rrcurveto
          88.79318 0.0 rlineto
          112.85925 0.0 46.39755 -71.30757 0.0 -93.36684 rrcurveto
          0.0 -93.36684 -46.40144 -71.28812 -112.85925 0.0 rrcurveto
          endchar
        </CharString>
        <CharString name="C">
          692 663.78757 303.11227 rmoveto
          0.0 -26.53957 -8.2411 -27.20071 -13.25034 -26.58234 rrcurveto
          -84.44122 -169.43472 -224.3223 -38.63483 -141.1995 126.1018 rrcurveto
          -32.71942 29.22307 -26.74957 34.99847 -13.4448 41.44278 rrcurveto
          -54.79424 168.94469 23.02377 158.794 164.04436 53.20357 rrcurveto
          128.07361 41.5789 96.26424 -61.06354 62.13695 -109.1879 rrcurveto
          12.37527 -21.74812 29.60422 -4.11472 17.69563 17.69563 rrcurveto
          13.7637 13.7637 1.24454 22.10204 -12.51527 14.90323 rrcurveto
          -60.3285 71.85205 -89.361 45.4875 -99.74115 0.0 rrcurveto
          -181.6233 0.0 -147.28212 -150.93793 0.0 -186.17361 rrcurveto
          0.0 -186.21251 147.28212 -150.93793 181.6233 0.0 rrcurveto
          175.59512 0.0 143.50964 141.05948 9.33395 177.6175 rrcurveto
          endchar
        </CharString>
        <CharString name="D">
          575 237.91206 643.1376 rmoveto
          -0.06612 0.0 -0.05055 -0.00778 -0.06612 -0.00389 rrcurveto
          -109.94627 0.0 rlineto
          0.0 0.01167 rlineto
          -77.783 0.0 rlineto
          0.0 -643.1371 rlineto
          77.783 0.0 rlineto
          0.0 0.01945 rlineto
          109.77515 0.0 rlineto
          0.12445 0.0 0.10501 -0.01945 0.12445 0.0 rrcurveto
          173.61555 0.0 140.74446 143.97244 0.0 177.59805 rrcurveto
          0.0 177.59415 -140.74057 143.97246 -173.61945 0.0 rrcurveto
          0.0039 -627.56107 rmoveto
          -110.12907 0.0 rlineto
          0.0 611.99667 rlineto
          111.14024 0.0 rlineto
          144.28748 -0.65727 83.49617 -139.1499 0.0 -166.19505 rrcurveto
          0.0 -166.58786 -83.8773 -139.40659 -144.91753 0.0 rrcurveto
          endchar
        </CharString>
        <CharString name="E">
          555 127.783 15.55629 rmoveto
          0.0 313.79219 rlineto
          338.92387 0.0 rlineto
          0.0 15.5566 rlineto
          -338.92387 0.0 rlineto
          0.0 282.6751 rlineto
          408.92859 0.0 rlineto
          0.0 15.5566 rlineto
          -486.7116 0.0 rlineto
          0.0 -643.1371 rlineto
          502.26819 0.0 rlineto
          0.0 15.5566 rlineto
          endchar
        </CharString>
        <CharString name="E.alt1">
          561 549.38245 43.0146 rmoveto
          -7.07436 15.10545 -17.98343 6.51044 -15.10545 -7.07437 rrcurveto
          -50.99065 -23.88327 -54.8837 -14.17984 -55.98042 -3.93971 rrcurveto
          -219.57753 0.0 rlineto
          0.0 313.79608 rlineto
          338.92387 0.0 rlineto
          0.0 15.5566 rlineto
          -338.92387 0.0 rlineto
          0.0 282.6751 rlineto
          204.02094 0.0 rlineto
          55.98431 -3.93971 54.8798 -14.17984 50.99065 -23.88327 rrcurveto
          15.10545 -7.07436 17.98343 6.51044 7.07436 15.10545 rrcurveto
          9.3923 20.04468 -14.65433 23.00432 -22.13315 -0.03111 rrcurveto
          -456.43066 0.0 rlineto
          0.0 -643.1371 rlineto
          471.98338 0.0 rlineto
          22.13704 -0.03111 14.65044 23.00043 -9.38841 20.04468 rrcurveto
          endchar
        </CharString>
        <CharString name="F">
          549 552.27208 627.58018 rmoveto
          0.0 15.5566 rlineto
          -502.27208 0.0 rlineto
          0.0 -643.1371 rlineto
          77.783 0.0 rlineto
          0.0 329.3488 rlineto
          338.92776 0.0 rlineto
          0.0 15.5566 rlineto
          -338.92776 0.0 rlineto
          0.0 282.6751 rlineto
          endchar
        </CharString>
        <CharString name="F.alt1">
          552 521.98338 643.13841 rmoveto
          -471.98338 0.0 rlineto
          0.0 -643.1371 rlineto
          77.783 0.0 rlineto
          0.0 329.34491 rlineto
          338.92387 0.0 rlineto
          0.0 15.5566 rlineto
          -338.92387 0.0 rlineto
          0.0 282.67899 rlineto
          219.57753 0.0 rlineto
          55.98431 -3.93971 54.8798 -14.17984 50.99065 -23.88327 rrcurveto
          15.10545 -7.07436 17.98343 6.51044 7.07436 15.10545 rrcurveto
          9.3923 20.04468 -14.65044 23.00432 -22.13704 -0.03111 rrcurveto
          endchar
        </CharString>
        <CharString name="G">
          706 679.34805 303.09827 rmoveto
          -303.1126 0.0 rlineto
          0.0 -15.5566 rlineto
          225.3257 0.0 rlineto
          0.0 -125.32008 rlineto
          -102.05908 -116.14948 -184.76964 -14.57265 -122.39545 109.30846 rrcurveto
          -32.71942 29.22307 -26.74957 34.99847 -13.4448 41.44278 rrcurveto
          -54.79813 168.94469 23.02377 158.794 164.04436 53.20357 rrcurveto
          128.07361 41.5789 96.26424 -61.06354 62.13695 -109.1879 rrcurveto
          12.37527 -21.74812 29.60422 -4.11472 17.69563 17.69563 rrcurveto
          13.7637 13.7637 1.24454 22.10204 -12.51527 14.90323 rrcurveto
          -60.3285 71.85205 -89.361 45.4875 -99.74115 0.0 rrcurveto
          -181.6233 0.0 -147.28212 -150.93793 0.0 -186.17361 rrcurveto
          0.0 -186.21251 147.28212 -150.93793 181.6233 0.0 rrcurveto
          100.43341 0.0 89.88992 46.18365 60.3324 72.74655 rrcurveto
          0.0 -103.35028 rlineto
          77.783 0.0 rlineto
          0.0 287.54044 rlineto
          0.00389 0.0 rlineto
          endchar
        </CharString>
        <CharString name="H">
          603 552.27208 0.00056 rmoveto
          -0.00389 643.1371 rlineto
          -77.783 0.0 rlineto
          0.0 -298.2356 rlineto
          -346.70218 0.0 rlineto
          0.0 298.2356 rlineto
          -77.783 0.0 rlineto
          0.0 -643.1371 rlineto
          77.783 0.0 rlineto
          0.0 329.34491 rlineto
          346.70218 0.0 rlineto
          0.0 -329.34491 rlineto
          endchar
        </CharString>
        <CharString name="I">
          178 127.783 -0.0003 rmoveto
          0.0 643.1371 rlineto
          -77.783 0.0 rlineto
          0.0 -643.1371 rlineto
          endchar
        </CharString>
        <CharString name="J">
          592 478.15913 643.12 rmoveto
          0.0 -320.53 rlineto
          -0.28 -0.65 -0.16 -0.37 0.0 0.0 rrcurveto
          0.0 0.0 -12.06 -260.65 -139.41 -45.22 rrcurveto
          -127.27 -41.31 -69.83 60.03 -55.86 107.9 rrcurveto
          -11.76 22.72 -30.35 4.89 -18.09 -18.09 rrcurveto
          -13.21 -13.21 -1.66 -20.99 11.25 -14.91 rrcurveto
          54.67 -72.4 62.71 -45.89 100.18 0.0 rrcurveto
          181.62 0.0 147.28 150.93 0.0 186.18 rrcurveto
          0.0 321.57 rlineto
          endchar
        </CharString>
        <CharString name="K">
          549 183.31618 337.10345 rmoveto
          297.96724 297.96335 rlineto
          -10.99852 11.00241 rlineto
          -342.5019 -342.5019 rlineto
          0.0 339.56947 rlineto
          -77.783 0.0 rlineto
          0.0 -643.1371 rlineto
          77.783 0.0 rlineto
          0.0 281.5667 rlineto
          0.57948 0.57948 rlineto
          308.80241 -282.14618 rlineto
          115.10718 0.0 rlineto
          endchar
        </CharString>
        <CharString name="L">
          546 127.78494 15.55629 rmoveto
          0.0 627.5805 rlineto
          -77.783 0.0 rlineto
          0.0 -643.1371 rlineto
          502.26819 0.0 rlineto
          0.0 15.5566 rlineto
          endchar
        </CharString>
        <CharString name="L.alt1">
          550 509.2192 57.55685 rmoveto
          -50.99065 -23.88327 -54.8798 -14.17984 -55.98042 -3.93971 rrcurveto
          -219.58531 0.0 rlineto
          0.0 627.5844 rlineto
          -77.783 0.0 rlineto
          0.0 -643.1371 rlineto
          3.77637 0.0 rlineto
          0.0 -0.00389 rlineto
          468.20702 0.0 rlineto
          22.13704 -0.03111 14.65044 23.00043 -9.38841 20.04857 rrcurveto
          -7.07436 15.10545 -17.98343 6.51044 -15.10545 -7.07437 rrcurveto
          endchar
        </CharString>
        <CharString name="LL.dlig">
          862 127.783 643.13759 rmoveto
          -77.783 0.0 rlineto
          0.0 -643.1371 rlineto
          502.26819 0.0 rlineto
          0.0 15.5566 rlineto
          -424.48518 0.0 rlineto
          312.22876 77.80244 rmoveto
          0.0 549.77026 rlineto
          -77.783 0.0 rlineto
          0.0 -565.32687 rlineto
          502.27208 0.0 rlineto
          0.0 15.5566 rlineto
          endchar
        </CharString>
        <CharString name="M">
          626 575.69643 669.35483 rmoveto
          -77.783 -107.70224 rlineto
          -160.54411 -222.34271 rlineto
          -287.36931 321.2088 rlineto
          0.0 -660.53716 rlineto
          15.5566 0.0 rlineto
          0.0 526.66872 rlineto
          225.25958 -251.78358 rlineto
          10.4618 -11.70634 rlineto
          46.55313 64.44322 rlineto
          150.0823 207.8362 rlineto
          0.0 -535.41931 rlineto
          77.783 0.0 rlineto
          endchar
        </CharString>
        <CharString name="N">
          603 536.72716 643.1303 rmoveto
          0.0 -526.66872 rlineto
          -486.72716 544.05711 rlineto
          0.0 -660.53716 rlineto
          15.5566 0.0 rlineto
          0.0 526.66872 rlineto
          486.72716 -544.061 rlineto
          0.0 660.54105 rlineto
          endchar
        </CharString>
        <CharString name="N.alt1">
          603 552.28375 628.49881 rmoveto
          0.03111 22.13704 -23.00043 14.65044 -20.04857 -9.3923 rrcurveto
          -15.10545 -7.07436 -6.51044 -17.98343 7.07437 -15.10545 rrcurveto
          23.88327 -50.99065 14.17984 -54.8837 3.93971 -55.98042 rrcurveto
          0.0 -337.41489 rlineto
          -486.72716 544.05711 rlineto
          0.0 -660.53716 rlineto
          15.5566 0.0 rlineto
          0.0 526.66872 rlineto
          486.72716 -544.05711 rlineto
          endchar
        </CharString>
        <CharString name="O">
          702 350.92 658.69 rmoveto
          -181.66 0.0 -147.26 -150.93 0.0 -186.19 rrcurveto
          0.0 -186.19 147.26 -150.94 181.66 0.0 rrcurveto
          181.66 0.0 147.25 150.94 0.0 186.19 rrcurveto
          0.0 186.19 -147.25 150.93 -181.66 0.0 rrcurveto
          99.22 -643.0 rmoveto
          -164.05 -53.21 -111.86 115.07 -54.8 168.93 rrcurveto
          -54.79 168.94 23.02 158.82 164.04 53.21 rrcurveto
          164.05 53.21 111.86 -115.07 54.79 -168.94 rrcurveto
          54.8 -168.93 -23.02 -158.82 -164.04 -53.21 rrcurveto
          endchar
        </CharString>
        <CharString name="O.alt1">
          702 396.94 321.55 rmoveto
          -46.03 46.04 rlineto
          -46.04 -46.04 rlineto
          46.04 -46.04 rlineto
          0.01 383.18 rmoveto
          -181.66 0.0 -147.26 -150.93 0.0 -186.19 rrcurveto
          0.0 -186.19 147.26 -150.94 181.66 0.0 rrcurveto
          181.65 0.0 147.26 150.94 0.0 186.19 rrcurveto
          0.0 186.19 -147.25 150.93 -181.66 0.0 rrcurveto
          99.22 -643.0 rmoveto
          -164.05 -53.21 -111.86 115.07 -54.8 168.93 rrcurveto
          -54.79 168.94 23.02 158.82 164.04 53.21 rrcurveto
          164.05 53.21 111.86 -115.07 54.79 -168.93 rrcurveto
          54.8 -168.94 -23.02 -158.82 -164.04 -53.21 rrcurveto
          endchar
        </CharString>
        <CharString name="OO.dlig">
          1031 679.8342 658.69418 rmoveto
          -59.90846 0.0 -56.16711 -16.42776 -48.38103 -28.68248 rrcurveto
          -48.38103 28.68248 -56.16322 16.42776 -59.91624 0.0 rrcurveto
          -181.65443 0.0 -147.26266 -150.93793 0.0 -186.18918 rrcurveto
          0.0 -186.18918 147.26266 -150.93793 181.65443 0.0 rrcurveto
          59.91235 0.0 56.16711 16.42776 48.38103 28.68248 rrcurveto
          48.38103 -28.68637 56.16711 -16.42387 59.91235 0.0 rrcurveto
          181.65443 0.0 147.26266 150.93793 0.0 186.18918 rrcurveto
          0.0 186.18918 -147.26266 150.93793 -181.65833 0.0 rrcurveto
          -134.01622 -586.6083 rmoveto
          -42.09616 43.38347 -32.61053 60.85353 -22.7593 70.16026 rrcurveto
          -41.4389 127.75081 3.1191 121.93263 74.90115 74.88559 rrcurveto
          42.09616 -43.38347 32.61053 -60.85353 22.7593 -70.16026 rrcurveto
          41.44278 -127.75081 -3.12299 -121.93263 -74.90115 -74.88559 rrcurveto
          -95.68086 -56.39658 rmoveto
          -164.04436 -53.21135 -111.85973 115.07217 -54.79813 168.93301 rrcurveto
          -54.79813 168.93301 23.01988 158.82121 164.04047 53.21136 rrcurveto
          89.29878 28.96638 73.82774 -20.91196 57.58664 -52.30907 rrcurveto
          -74.1272 -61.81415 -47.36597 -94.23022 0.0 -105.58266 rrcurveto
          0.0 -118.78242 59.94736 -104.42757 90.56664 -60.04848 rrcurveto
          -15.3038 -8.83226 -17.01114 -7.63051 -18.97905 -6.15652 rrcurveto
          328.9171 0.0 rmoveto
          -89.29878 -28.96638 -73.82774 20.91196 -57.58275 52.30907 rrcurveto
          74.1272 61.81415 47.36597 94.23022 0.0 105.58266 rrcurveto
          0.0 118.78242 -59.94347 104.42757 -90.57053 60.04848 rrcurveto
          15.3038 8.83615 17.01114 7.63051 18.97905 6.15652 rrcurveto
          164.04436 53.21135 111.85973 -115.07217 54.79813 -168.93301 rrcurveto
          54.79424 -168.9369 -23.01599 -158.82121 -164.04436 -53.21136 rrcurveto
          endchar
        </CharString>
        <CharString name="P">
          477 466.7069 462.90662 rmoveto
          0.0 99.53891 -109.60793 80.6921 -135.2102 0.0 rrcurveto
          -0.05833 0.0 -0.05057 -0.01945 -0.05444 0.0 rrcurveto
          -93.94241 0.0 rlineto
          0.0 0.01945 rlineto
          -77.783 0.0 rlineto
          0.0 -643.1371 rlineto
          77.783 0.0 rlineto
          0.0 282.6751 rlineto
          100.64732 0.0 rlineto
          0.0 0.12056 rlineto
          132.17667 2.56294 106.09991 79.62646 0.0 97.92102 rrcurveto
          -244.81813 -164.6744 rmoveto
          0.0 0.0 -0.00389 0.0 0.00389 0.0 rrcurveto
          -94.10577 0.0 rlineto
          0.0 329.32935 rlineto
          94.10577 0.0 rlineto
          112.85925 0.0 46.39755 -71.28812 0.0 -93.36684 rrcurveto
          0.0 -93.36684 -46.39755 -71.30757 -112.85925 0.0 rrcurveto
          endchar
        </CharString>
        <CharString name="Q">
          702 488.48 15.28 rmoveto
          112.95 53.38 78.4 117.06 0.0 135.85 rrcurveto
          0.0 186.19 -147.25 150.93 -181.66 0.0 rrcurveto
          -181.66 0.0 -147.26 -150.93 0.0 -186.19 rrcurveto
          0.0 -186.19 147.26 -150.94 181.66 0.0 rrcurveto
          32.74 0.0 31.63 4.93 29.85 9.13 rrcurveto
          0.89 -10.23 1.83 -10.17 2.82 -9.95 rrcurveto
          7.34 -26.16 14.03 -24.69 20.6 -20.6 rrcurveto
          61.4 -61.4 rlineto
          55.0 55.0 rlineto
          -106.92 106.92 rlineto
          -5.49 5.5 -4.5 6.11 -3.66 6.45 rrcurveto
          -369.05 231.2 rmoveto
          -54.79 168.94 23.02 158.82 164.04 53.21 rrcurveto
          164.05 53.21 111.86 -115.07 54.79 -168.93 rrcurveto
          50.96 -157.1 -16.41 -148.3 -134.47 -62.81 rrcurveto
          -10.32 29.04 6.04 33.59 22.77 23.63 rrcurveto
          0.68 0.7 0.68 0.69 0.69 0.69 rrcurveto
          12.72 12.73 -10.7 11.3 -13.02 -13.03 rrcurveto
          -31.42 -31.42 -15.77 -41.13 -0.27 -41.29 rrcurveto
          -161.0 -48.82 -109.95 114.35 -54.18 167.0 rrcurveto
          endchar
        </CharString>
        <CharString name="R">
          551 242.12791 283.36787 rmoveto
          125.72845 7.58385 98.85052 77.44466 0.0 94.51413 rrcurveto
          0.0 99.53502 -109.60793 80.6921 -135.2102 0.0 rrcurveto
          -0.05833 0.0 -0.05057 -0.01945 -0.05444 0.0 rrcurveto
          -93.94241 0.0 rlineto
          0.0 0.01945 rlineto
          -77.783 0.0 rlineto
          0.0 -643.1371 rlineto
          77.783 0.0 rlineto
          0.0 282.6751 rlineto
          309.3819 -282.6751 rlineto
          115.10329 0.0 rlineto
          -424.4852 627.56105 rmoveto
          94.10577 0.0 rlineto
          112.85925 0.0 46.39755 -71.28812 0.0 -93.36684 rrcurveto
          0.0 -93.36684 -46.39755 -71.30757 -112.85925 0.0 rrcurveto
          -94.10577 0.0 rlineto
          endchar
        </CharString>
        <CharString name="S">
          652 611.1401 238.93741 rmoveto
          -71.48647 105.00317 -141.89565 28.69026 -123.05272 8.33833 rrcurveto
          -21.3281 1.44676 -21.20753 2.94798 -20.74861 5.1648 rrcurveto
          -35.4146 8.8167 -37.79865 27.32127 -19.8969 29.69366 rrcurveto
          -32.87498 49.06941 27.65186 81.2599 57.11995 15.03157 rrcurveto
          72.28375 19.02184 138.67154 -13.70535 89.75769 -55.2376 rrcurveto
          21.0014 -12.92365 27.57019 8.27223 10.5746 22.27705 rrcurveto
          0.20224 0.42781 0.20222 0.4239 0.20224 0.42781 rrcurveto
          10.40347 21.91147 -10.55905 26.00674 -22.62318 8.7467 rrcurveto
          -168.8008 65.25604 -188.87659 -45.12192 -44.14963 -78.14081 rrcurveto
          -51.75291 -91.5895 56.276 -136.86697 232.91731 -57.73833 rrcurveto
          76.39069 -22.99655 106.4927 -10.28291 65.14326 -51.37178 rrcurveto
          31.61101 -23.05489 12.50362 -43.65182 -21.54588 -33.88228 rrcurveto
          -40.29549 -70.94977 -79.74702 -3.02576 -112.53645 21.6198 rrcurveto
          -112.53645 21.6198 -118.82521 36.488 -103.54861 81.52048 rrcurveto
          -0.00389 0.00778 -40.6105 -83.21227 0.0 0.0 rrcurveto
          119.57191 -105.50487 481.28622 -106.18158 32.10883 236.5109 rrcurveto
          5.35536 39.42432 -10.79239 39.80545 -22.38985 32.88664 rrcurveto
          endchar
        </CharString>
        <CharString name="T">
          489 -7.0 643.1368 rmoveto
          0.0 -15.5566 rlineto
          212.24258 0.0 rlineto
          0.0 -627.5805 rlineto
          77.783 0.0 rlineto
          0.0 627.5805 rlineto
          212.24258 0.0 rlineto
          0.00389 15.5566 rlineto
          endchar
        </CharString>
        <CharString name="TT.dlig">
          779 -7.0 643.13719 rmoveto
          0.0 -15.5566 rlineto
          212.24258 0.0 rlineto
          0.0 -627.5805 rlineto
          77.783 0.0 rlineto
          0.0 627.5805 rlineto
          212.24258 0.0 rlineto
          0.0 -627.5805 rlineto
          77.783 0.0 rlineto
          0.0 627.5805 rlineto
          212.24648 0.0 rlineto
          0.0 15.5566 rlineto
          endchar
        </CharString>
        <CharString name="U">
          730 693.34418 303.12535 rmoveto
          0.0 339.99728 rlineto
          -15.5566 0.0 rlineto
          0.0 -339.99728 rlineto
          0.01945 0.0 rlineto
          -0.00389 -0.00389 -0.00778 -0.00389 -0.00778 -0.00389 rrcurveto
          0.0 -26.53957 -8.2411 -27.20071 -13.25034 -26.58234 rrcurveto
          -84.44122 -169.43472 -224.3223 -38.63483 -141.1995 126.1018 rrcurveto
          -55.10538 45.10635 -26.30621 68.72517 -11.13853 67.51953 rrcurveto
          0.0 320.94823 rlineto
          -77.783 0.0 rlineto
          0.0 -321.53549 rlineto
          0.0 -186.21251 147.28212 -150.93793 181.6233 0.0 rrcurveto
          175.59512 0.0 143.50964 141.05948 9.33395 177.6175 rrcurveto
          -0.00778 0.00389 -0.00778 0.00389 -0.00777 0.00389 rrcurveto
          endchar
        </CharString>
        <CharString name="U.alt1">
          730 693.34 628.5 rmoveto
          0.04 22.14 -23.01 14.65 -20.04 -9.39 rrcurveto
          -15.11 -7.08 -6.51 -17.98 7.07 -15.1 rrcurveto
          23.89 -51.0 14.17 -54.88 3.94 -55.98 rrcurveto
          0.0 -150.75 rlineto
          0.02 0.0 rlineto
          0.0 -0.01 -0.01 0.0 -0.01 -0.01 rrcurveto
          0.0 -26.54 -8.24 -27.2 -13.25 -26.58 rrcurveto
          -84.44 -169.43 -224.32 -38.64 -141.2 126.1 rrcurveto
          -55.06 44.98 -25.99 68.47 -11.5 67.29 rrcurveto
          0.0 321.56 rlineto
          -77.78 0.0 rlineto
          0.0 -321.53 rlineto
          0.0 -186.22 147.28 -150.93 181.63 0.0 rrcurveto
          175.59 0.0 143.51 141.06 9.33 177.61 rrcurveto
          0.0 0.01 -0.01 0.0 -0.01 0.01 rrcurveto
          0.02 0.0 rlineto
          endchar
        </CharString>
        <CharString name="V">
          502 484.52151 643.1303 rmoveto
          -197.63882 -537.30943 rlineto
          -205.00488 537.30943 rlineto
          -82.87779 0.0 rlineto
          248.96394 -643.10988 rlineto
          16.76224 0.0 rlineto
          236.55756 643.10988 rlineto
          endchar
        </CharString>
        <CharString name="V.alt1">
          497 460.6849 658.16914 rmoveto
          -16.62222 -1.40398 -12.33638 -14.61154 1.40398 -16.62611 rrcurveto
          4.89255 -57.94833 -6.23431 -58.25948 -16.89058 -55.47484 rrcurveto
          -128.01527 -348.02449 rlineto
          -205.00488 537.30943 rlineto
          -82.87779 0.0 rlineto
          248.96394 -643.10988 rlineto
          16.76224 0.0 rlineto
          226.82301 617.5465 rlineto
          7.69662 20.7525 -16.50166 21.71312 -22.05927 -1.8629 rrcurveto
          endchar
        </CharString>
        <CharString name="W">
          823 806.01422 643.1303 rmoveto
          -197.63882 -537.30943 rlineto
          -205.00488 537.30943 rlineto
          -82.8739 0.0 rlineto
          84.10677 -217.26738 rlineto
          -117.72069 -320.04205 rlineto
          -205.00488 537.30943 rlineto
          -82.87779 0.0 rlineto
          248.96394 -643.10988 rlineto
          16.76224 0.0 rlineto
          148.4722 403.63934 rlineto
          156.26218 -403.63934 rlineto
          16.75835 0.0 rlineto
          236.56145 643.10988 rlineto
          endchar
        </CharString>
        <CharString name="X">
          509 505.28375 643.13419 rmoveto
          -18.94405 0.0 rlineto
          -208.28732 -288.45049 rlineto
          -184.80075 288.4466 rlineto
          -90.23994 0.0 rlineto
          218.32133 -340.76344 rlineto
          -218.333 -302.34644 rlineto
          18.94016 0.0 rlineto
          208.299 288.4466 rlineto
          184.80464 -288.4466 rlineto
          90.23994 0.0 rlineto
          -218.32912 340.77512 rlineto
          endchar
        </CharString>
        <CharString name="Y">
          498 499.28375 643.1303 rmoveto
          -16.76224 0.0 rlineto
          -194.65974 -446.59113 rlineto
          -207.98396 446.59113 rlineto
          -82.87779 0.0 rlineto
          212.23482 -462.64552 rlineto
          0.0 -180.4838 rlineto
          77.783 0.0 rlineto
          0.0 156.15327 rlineto
          endchar
        </CharString>
        <CharString name="Y.alt1">
          492 487.80298 616.6019 rmoveto
          8.90614 20.26636 -15.20268 22.64262 -22.12538 -0.56392 rrcurveto
          -16.67668 -0.42392 -13.17255 -13.86482 0.42392 -16.67667 rrcurveto
          1.48177 -58.19334 -9.66454 -57.8511 -20.16136 -54.43256 rrcurveto
          -113.74986 -260.96198 rlineto
          -207.98396 446.58723 rlineto
          -82.87779 0.0 rlineto
          212.23482 -462.64165 rlineto
          0.0 -180.4838 rlineto
          77.783 0.0 rlineto
          0.0 156.15327 rlineto
          190.44391 436.91103 rlineto
          endchar
        </CharString>
        <CharString name="Z">
          482 480.76945 77.81897 rmoveto
          -413.38943 0.0 rlineto
          315.34007 531.78683 rlineto
          19.87357 33.52448 rlineto
          -20.06802 0.0 rlineto
          -317.00073 -0.23335 rlineto
          0.0 -77.783 rlineto
          260.4525 0.15556 rlineto
          10.38403 0.0 rlineto
          -335.36142 -565.48244 rlineto
          20.1069 0.0 rlineto
          0.00778 0.01556 rlineto
          459.65477 0.23335 rlineto
          endchar
        </CharString>
        <CharString name="comma">
          135 67.00282 76.88354 rmoveto
          -21.23087 0.0 -17.20949 -17.21338 0.0 -21.22697 rrcurveto
          0.0 -21.23087 17.20949 -17.20949 21.23087 0.0 rrcurveto
          6.82156 0.0 6.39375 1.7929 5.55371 3.1152 rrcurveto
          -13.92705 -54.39754 -44.628 -23.7666 -2.21681 -1.15508 rrcurveto
          7.12103 -13.83371 rlineto
          2.98688 1.5401 70.33528 37.11028 0.0 88.03091 rrcurveto
          0.00389 21.23476 -17.21338 17.20949 -21.23087 0.0 rrcurveto
          endchar
        </CharString>
        <CharString name="controlCR">
          0 endchar
        </CharString>
        <CharString name="controlLF">
          0 endchar
        </CharString>
        <CharString name="exclam">
          168 91.6698 154.66653 rmoveto
          31.1132 488.46948 rlineto
          -77.783 0.0 rlineto
          31.1132 -488.46948 rlineto
          7.7783 -154.66373 rmoveto
          21.23003 0.0 17.21034 17.21034 0.0 21.23003 rrcurveto
          0.0 21.23003 -17.21034 17.21034 -21.23003 0.0 rrcurveto
          -21.23003 0.0 -17.21034 -17.21034 0.0 -21.23003 rrcurveto
          0.0 -21.23003 17.21034 -17.21034 21.23003 0.0 rrcurveto
          endchar
        </CharString>
        <CharString name="nonbreakingspace">
          274 endchar
        </CharString>
        <CharString name="period">
          133 66.44035 0.00282 rmoveto
          21.23003 0.0 17.21034 17.21034 0.0 21.23003 rrcurveto
          0.0 21.23003 -17.21034 17.21034 -21.23003 0.0 rrcurveto
          -21.23003 0.0 -17.21034 -17.21034 0.0 -21.23003 rrcurveto
          0.0 -21.23003 17.21034 -17.21034 21.23003 0.0 rrcurveto
          endchar
        </CharString>
        <CharString name="question">
          512 252.47057 0.00282 rmoveto
          21.23003 0.0 17.21034 17.21034 0.0 21.23003 rrcurveto
          0.0 21.23003 -17.21034 17.21034 -21.23003 0.0 rrcurveto
          -21.23003 0.0 -17.21034 -17.21034 0.0 -21.23003 rrcurveto
          0.0 -21.23003 17.21034 -17.21034 21.23003 0.0 rrcurveto
          -0.0389 643.14488 rmoveto
          -123.40274 0.0 -100.02895 -85.71687 0.0 -105.7071 rrcurveto
          85.5613 0.0 rlineto
          0.0 107.1072 95.24529 95.12862 110.06294 -34.88568 rrcurveto
          107.72946 -34.18562 -4.74477 -73.46605 -36.75247 -95.36195 rrcurveto
          -27.4574 -71.32701 -35.93575 -55.92598 -62.45975 -12.13416 rrcurveto
          -5.017 -0.97229 -5.17258 -0.70004 -5.36703 -0.38892 rrcurveto
          0.0 -119.94139 rlineto
          15.5566 0.0 rlineto
          0.0 105.7849 rlineto
          119.82472 3.53912 95.86755 84.27788 0.0 103.4514 rrcurveto
          0.0 105.7071 -100.06783 85.71687 -123.44164 0.0 rrcurveto
          endchar
        </CharString>
        <CharString name="softhyphen">
          0 endchar
        </CharString>
        <CharString name="space">
          274 endchar
        </CharString>
</ttFont>
